<?xml version="1.0" encoding="UTF-8" standalone="no"?>
<!-- Created with Inkscape (http://www.inkscape.org/) -->

<svg
   width="210mm"
   height="297mm"
   viewBox="0 0 210 297"
   version="1.1"
   id="svg1"
   xml:space="preserve"
   inkscape:version="1.4 (e7c3feb1, 2024-10-09)"
   sodipodi:docname="sentinel.svg"
   xmlns:inkscape="http://www.inkscape.org/namespaces/inkscape"
   xmlns:sodipodi="http://sodipodi.sourceforge.net/DTD/sodipodi-0.dtd"
   xmlns="http://www.w3.org/2000/svg"
   xmlns:svg="http://www.w3.org/2000/svg"><sodipodi:namedview
     id="namedview1"
     pagecolor="#505050"
     bordercolor="#eeeeee"
     borderopacity="1"
     inkscape:showpageshadow="0"
     inkscape:pageopacity="0"
     inkscape:pagecheckerboard="0"
     inkscape:deskcolor="#505050"
     inkscape:document-units="mm"
     inkscape:zoom="0.66824341"
     inkscape:cx="295.55099"
     inkscape:cy="702.5883"
     inkscape:window-width="1712"
     inkscape:window-height="984"
     inkscape:window-x="0"
     inkscape:window-y="39"
     inkscape:window-maximized="1"
     inkscape:current-layer="layer1" /><defs
     id="defs1" /><g
     inkscape:label="Layer 1"
     inkscape:groupmode="layer"
     id="layer1"><path
       style="fill:#000000"
       d="m 41.906577,233.44513 c 0.297291,-0.48102 3.93566,-2.39129 6.913562,-3.62985 4.848406,-2.01653 8.560183,-3.08982 15.610146,-4.51377 l 2.380979,-0.48091 0.298775,-2.02146 c 0.164327,-1.11181 0.379847,-2.61678 0.478934,-3.34438 0.09909,-0.7276 0.304516,-2.11667 0.456509,-3.08681 0.151992,-0.97013 0.3509,-2.3592 0.442018,-3.0868 0.09112,-0.72761 0.282203,-2.07698 0.424632,-2.99861 0.14243,-0.92163 0.342525,-2.3107 0.444657,-3.08681 0.102131,-0.77611 0.269186,-1.92705 0.371232,-2.55764 0.102046,-0.63059 0.258201,-1.66246 0.34701,-2.29305 0.08881,-0.63059 0.364013,-2.49591 0.611563,-4.14514 0.247549,-1.64924 0.606074,-4.07017 0.79672,-5.37986 0.190647,-1.30969 0.470379,-3.175 0.621627,-4.14514 0.151248,-0.97014 0.545563,-3.58951 0.876255,-5.82083 0.330692,-2.23132 0.641131,-4.29507 0.689863,-4.58612 0.09052,-0.5406 0.193499,-1.25003 0.832132,-5.73263 0.200412,-1.40671 0.436839,-3.03389 0.525394,-3.61598 0.159255,-1.04681 0.561685,-3.73042 0.879495,-5.86493 0.09028,-0.60633 0.238154,-1.59852 0.328613,-2.20486 0.09046,-0.60633 0.246821,-1.71412 0.347472,-2.46175 0.100651,-0.74762 0.338125,-2.33512 0.52772,-3.52777 0.189595,-1.19266 0.391143,-2.48596 0.447885,-2.87402 0.05674,-0.38805 0.307643,-2.09462 0.557557,-3.79236 0.249915,-1.69774 0.525134,-3.60274 0.611598,-4.23333 0.08646,-0.63059 0.279416,-1.94028 0.428781,-2.91042 0.149366,-0.97014 0.389879,-2.59733 0.534474,-3.61597 0.276205,-1.94582 0.580541,-3.88148 0.712169,-4.52959 0.06661,-0.32796 -0.109862,-0.47569 -1.200982,-1.00538 -1.647715,-0.79989 -4.038396,-2.74831 -4.774315,-3.89109 -0.651108,-1.01109 -1.078221,-2.12704 -0.915104,-2.39097 0.07278,-0.11776 9.544385,-0.17742 28.168302,-0.17742 h 28.05864 l -0.091,0.67849 c -0.22401,1.67009 -2.69655,4.21005 -5.44629,5.5948 -0.65213,0.3284 -1.22196,0.6586 -1.26631,0.73378 -0.0443,0.0752 -0.0103,0.61293 0.0757,1.19502 0.0859,0.58208 0.22862,1.57427 0.31705,2.20486 0.18606,1.32677 0.8727,5.99901 1.51646,10.31875 0.24578,1.64923 0.52366,3.55423 0.61751,4.23333 0.19756,1.42953 0.51053,3.47837 1.14516,7.49653 0.16088,1.01864 0.35909,2.32833 0.44047,2.91041 0.23858,1.70658 1.3575,9.35507 2.03856,13.93473 0.34626,2.32833 0.69663,4.70958 0.7786,5.29166 0.082,0.58209 0.31438,2.16959 0.51645,3.52778 0.20207,1.3582 0.4496,3.02507 0.55006,3.70417 0.10046,0.6791 0.34349,2.22691 0.54006,3.43958 0.57944,3.57462 0.67673,4.2186 0.95935,6.35 0.14793,1.11566 0.34607,2.46504 0.44031,2.99861 0.0942,0.53358 0.25042,1.56545 0.34709,2.29306 0.0967,0.7276 0.2492,1.79916 0.33898,2.38125 0.0898,0.58208 0.3289,2.24896 0.53139,3.70416 0.20249,1.45521 0.44933,3.16177 0.54854,3.79237 0.16849,1.07098 1.11511,7.69023 1.32434,9.26041 0.26202,1.96646 0.49728,3.28155 0.59821,3.34393 0.0619,0.0382 0.78443,0.19789 1.60568,0.35477 7.407,1.41497 14.22747,3.51381 18.77931,5.7789 1.64071,0.81645 4.14514,2.28171 4.14514,2.4252 0,0.071 -0.37703,0.0638 -0.83785,-0.0161 -0.46082,-0.0798 -2.42535,-0.31534 -4.36563,-0.52336 -1.94027,-0.20801 -4.16277,-0.44875 -4.93888,-0.53497 -2.22862,-0.24758 -8.56648,-0.81774 -11.46528,-1.03143 -1.45521,-0.10728 -3.55865,-0.27023 -4.67431,-0.36213 -9.66599,-0.79618 -35.274727,-1.28145 -47.421694,-0.89862 -6.925682,0.21828 -11.994371,0.44305 -16.60747,0.73645 -1.406702,0.0895 -3.787952,0.23775 -5.291667,0.32951 -2.955826,0.18038 -9.62638,0.77974 -11.90625,1.0698 -1.223949,0.15572 -4.921488,0.57109 -9.436805,1.06011 -0.727604,0.0788 -1.553037,0.20148 -1.834295,0.27263 -0.319356,0.0808 -0.471419,0.0647 -0.404962,-0.0428 z m 43.602451,-10.65127 c 1.843264,-0.10609 4.224514,-0.24594 5.291667,-0.31079 l 1.940277,-0.11789 0.211256,-1.6757 c 0.342505,-2.71678 0.769866,-6.16434 0.940205,-7.58472 0.194965,-1.62573 0.41278,-3.32246 0.781208,-6.08542 0.155236,-1.16416 0.441966,-3.42308 0.637178,-5.0198 0.195211,-1.59673 0.589807,-4.61298 0.876878,-6.70278 0.287071,-2.0898 0.521965,-4.0973 0.521987,-4.4611 2.1e-5,-0.3638 0.07941,-0.66146 0.176427,-0.66146 0.09701,0 0.176524,0.0595 0.176689,0.1323 4.2e-4,0.1858 0.512574,7.13981 0.62031,8.42257 0.183734,2.18759 0.609959,7.31406 0.791928,9.525 0.264821,3.21759 0.497363,5.86625 0.704624,8.02569 0.09777,1.01865 0.253385,2.75495 0.345813,3.85845 0.09243,1.10351 0.193318,2.03164 0.224201,2.06252 0.03088,0.0309 2.871874,0.10398 6.313304,0.16244 3.44144,0.0585 7.03304,0.18139 7.98135,0.27317 0.9483,0.0918 1.78174,0.15247 1.85208,0.13485 0.0703,-0.0176 1.0804,0.026 2.24456,0.0969 5.42745,0.33057 5.20347,0.32873 5.20347,0.0427 0,-0.14716 -0.1633,-1.52076 -0.36289,-3.05244 -0.19959,-1.53168 -0.43485,-3.41987 -0.5228,-4.19598 -0.17327,-1.52894 -0.35643,-3.01503 -0.79354,-6.4382 -0.15484,-1.21267 -0.35351,-2.80017 -0.44149,-3.52777 -0.088,-0.72761 -0.36346,-2.91042 -0.6122,-4.8507 -0.24874,-1.94028 -0.52944,-4.16278 -0.62377,-4.93889 -0.47609,-3.91717 -0.93548,-7.74658 -1.2273,-10.23055 -0.0912,-0.77611 -0.24295,-2.04611 -0.33728,-2.82222 -0.0943,-0.77612 -0.29938,-2.48268 -0.45569,-3.79237 -0.27178,-2.27733 -0.37243,-3.08607 -0.77934,-6.2618 -0.26386,-2.05928 -0.71756,-5.78412 -0.90236,-7.40833 -0.23475,-2.06324 -0.4718,-3.95949 -0.79381,-6.35 -0.15682,-1.16417 -0.35541,-2.75167 -0.44131,-3.52778 -0.0859,-0.77611 -0.24304,-2.04611 -0.34921,-2.82222 -0.10616,-0.77611 -0.26816,-2.10704 -0.36,-2.95761 -0.0918,-0.85057 -0.24194,-2.08088 -0.33354,-2.73403 -0.0916,-0.65314 -0.25474,-1.98128 -0.36252,-2.95142 -0.10778,-0.97014 -0.27042,-2.24014 -0.36143,-2.82222 -0.091,-0.58208 -0.32949,-2.44195 -0.52995,-4.13303 -0.20047,-1.69108 -0.42333,-3.35795 -0.49525,-3.70416 l -0.13077,-0.62948 -10.51903,-0.0455 c -10.033953,-0.0434 -10.523723,-0.0307 -10.620775,0.27509 -0.05596,0.17631 -0.221544,1.30803 -0.367967,2.51492 -0.146422,1.2069 -0.347173,2.82936 -0.446111,3.60547 -0.09894,0.77611 -0.253508,2.04611 -0.343487,2.82222 -0.08998,0.77612 -0.368286,2.99862 -0.618459,4.93889 -0.250174,1.94028 -0.529526,4.20247 -0.620782,5.02709 -0.17156,1.55026 -0.572455,4.8579 -0.887221,7.32013 -0.09922,0.77612 -0.249717,2.00643 -0.334446,2.73403 -0.145864,1.25259 -0.688315,5.57699 -1.062055,8.46667 -0.20779,1.60658 -0.444971,3.57214 -0.798174,6.61458 -0.495092,4.26466 -0.640904,5.46476 -0.803671,6.61459 -0.08926,0.63059 -0.329394,2.57527 -0.533619,4.32152 -0.204225,1.74625 -0.446606,3.77032 -0.538625,4.49792 -0.09202,0.7276 -0.237408,1.9976 -0.323088,2.82222 -0.138968,1.33748 -0.48638,4.14278 -1.070366,8.64306 -0.107008,0.82462 -0.269581,1.97555 -0.361273,2.55764 -0.09169,0.58208 -0.242762,1.73302 -0.335712,2.55764 -0.09295,0.82461 -0.253542,2.17399 -0.356872,2.99861 -0.10333,0.82461 -0.26016,2.1343 -0.348512,2.91041 -0.08835,0.77611 -0.323044,2.60174 -0.521538,4.05695 -0.198495,1.45521 -0.361469,2.99414 -0.362164,3.41984 l -0.0013,0.77401 1.102431,-0.11045 c 0.606336,-0.0607 2.610555,-0.19724 4.453819,-0.30333 z M 77.411654,120.637 c -0.05199,-0.41457 -0.138488,-2.69845 -0.192217,-5.07529 -0.138426,-6.12372 -0.113615,-5.98003 -1.210734,-7.0118 -0.498641,-0.46895 -1.422557,-1.21598 -2.053147,-1.66008 -1.121208,-0.78962 -1.184904,-0.81016 -2.88427,-0.93044 -2.092182,-0.14808 -2.423531,-0.2823 -2.93248,-1.18785 -0.313494,-0.55779 -0.369849,-0.85562 -0.277907,-1.46873 0.161223,-1.07511 0.560357,-1.49719 2.24502,-2.3741 0.807613,-0.42038 2.063699,-1.082174 2.791303,-1.47065 1.549812,-0.82746 6.242967,-3.305475 9.260417,-4.889558 1.164167,-0.611157 2.315104,-1.247635 2.557639,-1.414395 0.242535,-0.16676 1.314097,-0.747032 2.38125,-1.289494 1.067153,-0.542461 2.53559,-1.313481 3.263194,-1.713377 3.035551,-1.668359 5.894535,-3.200474 8.466667,-4.537244 l 2.734031,-1.42091 1.85208,0.925555 c 2.25668,1.127745 4.17827,2.141441 8.55486,4.512947 1.84326,0.998793 3.66889,1.975892 4.05695,2.171331 0.38805,0.195438 1.45961,0.76974 2.38125,1.276226 2.50212,1.375051 9.99092,5.344111 13.16939,6.979769 1.53659,0.79074 2.97793,1.6133 3.20299,1.82789 0.89261,0.85116 0.80941,2.70273 -0.15803,3.51677 -0.4121,0.34676 -0.76086,0.42205 -2.45027,0.52895 -1.89927,0.12018 -1.99934,0.14704 -2.79575,0.75042 -0.45428,0.34419 -1.35077,1.12488 -1.99219,1.73487 l -1.16622,1.10909 -0.11565,4.47261 c -0.0636,2.45994 -0.1635,5.12929 -0.222,5.93189 l -0.10635,1.45929 -3.0215,-0.0482 -3.02151,-0.0482 -0.0277,-7.05555 -0.0277,-7.05556 1.57177,-1.45408 c 0.86448,-0.79974 2.00804,-1.70029 2.54124,-2.00121 0.53321,-0.30093 0.92891,-0.61277 0.87933,-0.69298 -0.12392,-0.20052 -46.300142,-0.2289 -46.300142,-0.0285 0,0.0868 0.480676,0.45453 1.068169,0.81715 0.587492,0.36262 1.733531,1.30656 2.546753,2.09764 l 1.478585,1.43833 0.05498,6.96736 0.05498,6.96736 -3.031283,0.0482 -3.031283,0.0482 z m 10.975448,0.34866 c -0.09362,-0.29453 -0.04172,-13.52258 0.05343,-13.61773 0.114092,-0.11409 22.199225,-0.23438 24.452865,-0.13318 l 1.98438,0.0891 v 6.94115 6.94115 h -13.2103 c -10.413262,0 -13.225131,-0.0467 -13.280378,-0.22049 z m 14.563958,-2.28189 c 1.80658,-0.52089 3.28088,-2.21859 3.42385,-3.94269 0.17801,-2.14656 -0.79855,-3.84418 -2.74829,-4.77752 -2.42144,-1.15915 -5.115164,-0.23788 -6.368079,2.17791 -0.709498,1.36801 -0.559516,3.28256 0.364102,4.64782 1.202147,1.77697 3.232397,2.49881 5.328417,1.89448 z m -2.71631,-2.41033 c -1.924516,-1.02269 -1.861596,-3.84347 0.10699,-4.79644 l 0.74485,-0.36058 1.20705,0.58105 c 1.0302,0.49591 1.26488,0.69744 1.60171,1.37545 0.33114,0.66657 0.3662,0.89745 0.21783,1.43479 -0.48656,1.76217 -2.31696,2.59549 -3.87843,1.76573 z M 62.049306,84.744232 c -0.194028,-0.04669 -0.571059,-0.290454 -0.837847,-0.541706 -0.385232,-0.362797 -0.48507,-0.615203 -0.48507,-1.22633 0,-1.30168 0.160633,-1.492121 4.028033,-4.775507 5.310272,-4.50837 13.50108,-8.822747 20.641755,-10.872713 3.791737,-1.088543 6.073139,-1.515009 10.861544,-2.030369 3.973649,-0.42767 6.662799,-0.452232 10.241589,-0.09354 9.78465,0.980678 18.54268,3.94081 26.2507,8.872493 2.77456,1.775193 4.53915,3.109959 7.21955,5.46096 2.6356,2.311719 3.06551,3.181049 2.2044,4.457575 -0.25193,0.373467 -0.61817,0.645603 -1.00279,0.745146 -1.13378,0.293423 -1.66844,0.04112 -3.43913,-1.622906 -5.90991,-5.553893 -14.28554,-10.074369 -22.67787,-12.239641 -2.60584,-0.67232 -4.03501,-0.942418 -8.05968,-1.523185 -1.63238,-0.235556 -8.974139,-0.237436 -10.762632,-0.0028 -4.989346,0.654686 -7.690722,1.263746 -12.190351,2.748473 -3.911482,1.290658 -9.668975,4.252928 -13.43734,6.913605 -1.578831,1.114743 -4.658139,3.616465 -5.781012,4.696666 -1.115542,1.073148 -1.701902,1.291669 -2.773849,1.033739 z M 49.702084,76.191634 c -0.9324,-0.531278 -1.316639,-1.635929 -0.95786,-2.753761 0.216106,-0.673312 1.475832,-1.999488 4.142503,-4.361018 10.310891,-9.131038 22.987686,-15.112777 36.76744,-17.349275 2.586512,-0.419799 3.872302,-0.563409 7.276525,-0.812715 4.155588,-0.304332 6.325598,-0.328796 8.723848,-0.09835 0.94969,0.09125 2.67921,0.257435 3.84338,0.36929 1.83121,0.175947 3.61362,0.445035 6.96736,1.051853 1.11797,0.202283 4.05918,0.8772 4.58611,1.052368 0.24253,0.08063 0.91722,0.282279 1.4993,0.448114 9.78728,2.788395 20.05345,8.473838 28.13403,15.580735 2.56231,2.253557 3.6628,3.453573 3.86883,4.218731 0.40792,1.5149 -0.59879,2.871767 -2.12159,2.859519 -1.01908,-0.0082 -1.21984,-0.134723 -3.36536,-2.120919 -3.60747,-3.339574 -4.55188,-4.108381 -8.08327,-6.580246 -5.61299,-3.928929 -12.13583,-7.141167 -18.60902,-9.164203 -1.58887,-0.496561 -5.41041,-1.479191 -6.61459,-1.700805 -2.99014,-0.550297 -4.02277,-0.719644 -5.82083,-0.95459 -4.20402,-0.549323 -8.09291,-0.714168 -11.344995,-0.480899 -6.325284,0.453706 -11.147255,1.250264 -16.185806,2.67379 -1.317462,0.372218 -2.825587,0.846489 -3.351389,1.053936 -0.525803,0.207446 -1.432255,0.540683 -2.014339,0.740525 -0.582083,0.199842 -1.556414,0.589894 -2.165181,0.866783 -0.608766,0.276889 -1.142508,0.503434 -1.186092,0.503434 -0.04358,0 -1.089359,0.486006 -2.323942,1.080014 -2.081182,1.001339 -6.496426,3.54346 -8.347701,4.80627 -2.864678,1.954083 -6.806808,5.146655 -9.049721,7.329003 -0.854256,0.831188 -1.727381,1.608093 -1.940278,1.726454 -0.48827,0.271457 -1.862427,0.280883 -2.327362,0.01596 z"
       id="path1" /></g></svg>
